<mxfile host="app.diagrams.net" modified="2022-02-25T07:34:26.463Z" agent="5.0 (Windows NT 10.0; Win64; x64) AppleWebKit/537.36 (KHTML, like Gecko) Chrome/97.0.4692.71 Safari/537.36" etag="BR-68gd2bl2Kq7ZEMp09" version="16.6.4" type="github">
  <diagram id="DfoLl7XWPT0Z0QoZ4qrk" name="第 1 页">
    <mxGraphModel dx="1038" dy="538" grid="1" gridSize="10" guides="1" tooltips="1" connect="1" arrows="0" fold="1" page="1" pageScale="1" pageWidth="827" pageHeight="1169" math="0" shadow="0">
      <root>
        <mxCell id="0" />
        <mxCell id="1" parent="0" />
        <mxCell id="F4s6sWihYmoW9v9ohPtb-1" value="" style="rounded=0;whiteSpace=wrap;html=1;align=left;fillColor=#dae8fc;strokeColor=#6c8ebf;" vertex="1" parent="1">
          <mxGeometry x="120" y="120" width="200" height="280" as="geometry" />
        </mxCell>
        <mxCell id="F4s6sWihYmoW9v9ohPtb-4" value="ns1" style="text;html=1;resizable=0;autosize=1;align=center;verticalAlign=middle;points=[];fillColor=none;strokeColor=none;rounded=0;fontSize=18;" vertex="1" parent="1">
          <mxGeometry x="200" y="90" width="40" height="30" as="geometry" />
        </mxCell>
        <mxCell id="F4s6sWihYmoW9v9ohPtb-5" value="" style="rounded=0;whiteSpace=wrap;html=1;align=left;fillColor=#dae8fc;strokeColor=#6c8ebf;" vertex="1" parent="1">
          <mxGeometry x="480" y="120" width="200" height="280" as="geometry" />
        </mxCell>
        <mxCell id="F4s6sWihYmoW9v9ohPtb-6" value="ns2" style="text;html=1;resizable=0;autosize=1;align=center;verticalAlign=middle;points=[];fillColor=none;strokeColor=none;rounded=0;fontSize=18;" vertex="1" parent="1">
          <mxGeometry x="560" y="90" width="40" height="30" as="geometry" />
        </mxCell>
        <mxCell id="F4s6sWihYmoW9v9ohPtb-7" value="VRouter(ip_forward=1)" style="rounded=0;whiteSpace=wrap;html=1;fontSize=18;fillColor=#d5e8d4;strokeColor=#82b366;" vertex="1" parent="1">
          <mxGeometry x="120" y="480" width="560" height="60" as="geometry" />
        </mxCell>
        <mxCell id="F4s6sWihYmoW9v9ohPtb-23" style="edgeStyle=orthogonalEdgeStyle;rounded=0;orthogonalLoop=1;jettySize=auto;html=1;exitX=0.5;exitY=1;exitDx=0;exitDy=0;entryX=0.5;entryY=0;entryDx=0;entryDy=0;shadow=1;dashed=1;fontSize=18;endArrow=none;endFill=0;" edge="1" parent="1" source="F4s6sWihYmoW9v9ohPtb-8" target="F4s6sWihYmoW9v9ohPtb-11">
          <mxGeometry relative="1" as="geometry" />
        </mxCell>
        <mxCell id="F4s6sWihYmoW9v9ohPtb-8" value="tun1" style="rounded=1;whiteSpace=wrap;html=1;fontSize=18;" vertex="1" parent="1">
          <mxGeometry x="195" y="160" width="50" height="30" as="geometry" />
        </mxCell>
        <mxCell id="F4s6sWihYmoW9v9ohPtb-25" style="edgeStyle=orthogonalEdgeStyle;rounded=0;orthogonalLoop=1;jettySize=auto;html=1;exitX=0.5;exitY=1;exitDx=0;exitDy=0;shadow=1;dashed=1;fontSize=18;endArrow=none;endFill=0;" edge="1" parent="1" source="F4s6sWihYmoW9v9ohPtb-10" target="F4s6sWihYmoW9v9ohPtb-12">
          <mxGeometry relative="1" as="geometry" />
        </mxCell>
        <mxCell id="F4s6sWihYmoW9v9ohPtb-10" value="tun2" style="rounded=1;whiteSpace=wrap;html=1;fontSize=18;" vertex="1" parent="1">
          <mxGeometry x="555" y="160" width="50" height="30" as="geometry" />
        </mxCell>
        <mxCell id="F4s6sWihYmoW9v9ohPtb-26" style="edgeStyle=orthogonalEdgeStyle;rounded=0;orthogonalLoop=1;jettySize=auto;html=1;exitX=0.5;exitY=1;exitDx=0;exitDy=0;shadow=1;fontSize=18;endArrow=none;endFill=0;" edge="1" parent="1" source="F4s6sWihYmoW9v9ohPtb-11">
          <mxGeometry relative="1" as="geometry">
            <mxPoint x="220" y="480" as="targetPoint" />
          </mxGeometry>
        </mxCell>
        <mxCell id="F4s6sWihYmoW9v9ohPtb-36" value="veth-pair" style="edgeLabel;html=1;align=center;verticalAlign=middle;resizable=0;points=[];fontSize=14;" vertex="1" connectable="0" parent="F4s6sWihYmoW9v9ohPtb-26">
          <mxGeometry x="0.2053" y="1" relative="1" as="geometry">
            <mxPoint as="offset" />
          </mxGeometry>
        </mxCell>
        <mxCell id="F4s6sWihYmoW9v9ohPtb-11" value="v1" style="rounded=1;whiteSpace=wrap;html=1;fontSize=18;" vertex="1" parent="1">
          <mxGeometry x="195" y="300" width="50" height="30" as="geometry" />
        </mxCell>
        <mxCell id="F4s6sWihYmoW9v9ohPtb-27" style="edgeStyle=orthogonalEdgeStyle;rounded=0;orthogonalLoop=1;jettySize=auto;html=1;exitX=0.5;exitY=1;exitDx=0;exitDy=0;entryX=0.5;entryY=0;entryDx=0;entryDy=0;shadow=1;fontSize=18;endArrow=none;endFill=0;" edge="1" parent="1" source="F4s6sWihYmoW9v9ohPtb-12" target="F4s6sWihYmoW9v9ohPtb-15">
          <mxGeometry relative="1" as="geometry" />
        </mxCell>
        <mxCell id="F4s6sWihYmoW9v9ohPtb-38" value="veth-pair" style="edgeLabel;html=1;align=center;verticalAlign=middle;resizable=0;points=[];fontSize=14;" vertex="1" connectable="0" parent="F4s6sWihYmoW9v9ohPtb-27">
          <mxGeometry x="0.152" y="1" relative="1" as="geometry">
            <mxPoint x="-1" y="4" as="offset" />
          </mxGeometry>
        </mxCell>
        <mxCell id="F4s6sWihYmoW9v9ohPtb-12" value="v2" style="rounded=1;whiteSpace=wrap;html=1;fontSize=18;" vertex="1" parent="1">
          <mxGeometry x="555" y="300" width="50" height="30" as="geometry" />
        </mxCell>
        <mxCell id="F4s6sWihYmoW9v9ohPtb-15" value="v2_r" style="rounded=1;whiteSpace=wrap;html=1;fontSize=18;" vertex="1" parent="1">
          <mxGeometry x="555" y="480" width="50" height="30" as="geometry" />
        </mxCell>
        <mxCell id="F4s6sWihYmoW9v9ohPtb-18" value="" style="shape=flexArrow;endArrow=classic;startArrow=classic;html=1;rounded=0;fontSize=18;entryX=0;entryY=0.5;entryDx=0;entryDy=0;dashed=1;fillColor=#f8cecc;strokeColor=#b85450;" edge="1" parent="1" target="F4s6sWihYmoW9v9ohPtb-10">
          <mxGeometry width="100" height="100" relative="1" as="geometry">
            <mxPoint x="245" y="174.5" as="sourcePoint" />
            <mxPoint x="415" y="174.5" as="targetPoint" />
          </mxGeometry>
        </mxCell>
        <mxCell id="F4s6sWihYmoW9v9ohPtb-28" value="&lt;font style=&quot;font-size: 14px&quot;&gt;192.168.1.1&lt;/font&gt;" style="text;html=1;resizable=0;autosize=1;align=center;verticalAlign=middle;points=[];fillColor=none;strokeColor=none;rounded=0;fontSize=18;" vertex="1" parent="1">
          <mxGeometry x="130" y="190" width="90" height="30" as="geometry" />
        </mxCell>
        <mxCell id="F4s6sWihYmoW9v9ohPtb-29" value="&lt;font style=&quot;font-size: 14px&quot;&gt;192.168.2.2&lt;/font&gt;" style="text;html=1;resizable=0;autosize=1;align=center;verticalAlign=middle;points=[];fillColor=none;strokeColor=none;rounded=0;fontSize=18;" vertex="1" parent="1">
          <mxGeometry x="490" y="190" width="90" height="30" as="geometry" />
        </mxCell>
        <mxCell id="F4s6sWihYmoW9v9ohPtb-30" value="&lt;font style=&quot;font-size: 14px&quot;&gt;10.0.1.1&lt;/font&gt;" style="text;html=1;resizable=0;autosize=1;align=center;verticalAlign=middle;points=[];fillColor=none;strokeColor=none;rounded=0;fontSize=18;" vertex="1" parent="1">
          <mxGeometry x="150" y="330" width="70" height="30" as="geometry" />
        </mxCell>
        <mxCell id="F4s6sWihYmoW9v9ohPtb-31" value="&lt;font style=&quot;font-size: 14px&quot;&gt;10.0.2.2&lt;/font&gt;" style="text;html=1;resizable=0;autosize=1;align=center;verticalAlign=middle;points=[];fillColor=none;strokeColor=none;rounded=0;fontSize=18;" vertex="1" parent="1">
          <mxGeometry x="510" y="330" width="70" height="30" as="geometry" />
        </mxCell>
        <mxCell id="F4s6sWihYmoW9v9ohPtb-33" value="&lt;font style=&quot;font-size: 14px&quot;&gt;10.0.1.254&lt;/font&gt;" style="text;html=1;resizable=0;autosize=1;align=center;verticalAlign=middle;points=[];fillColor=none;strokeColor=none;rounded=0;fontSize=18;" vertex="1" parent="1">
          <mxGeometry x="480" y="480" width="80" height="30" as="geometry" />
        </mxCell>
        <mxCell id="F4s6sWihYmoW9v9ohPtb-34" value="v1_r" style="rounded=1;whiteSpace=wrap;html=1;fontSize=18;" vertex="1" parent="1">
          <mxGeometry x="195" y="480" width="50" height="30" as="geometry" />
        </mxCell>
        <mxCell id="F4s6sWihYmoW9v9ohPtb-35" value="&lt;font style=&quot;font-size: 14px&quot;&gt;10.0.1.254&lt;/font&gt;" style="text;html=1;resizable=0;autosize=1;align=center;verticalAlign=middle;points=[];fillColor=none;strokeColor=none;rounded=0;fontSize=18;" vertex="1" parent="1">
          <mxGeometry x="120" y="480" width="80" height="30" as="geometry" />
        </mxCell>
      </root>
    </mxGraphModel>
  </diagram>
</mxfile>
